<?xml version="1.0" encoding="UTF-8" standalone="no"?>
<!-- Created with Inkscape (http://www.inkscape.org/) -->

<svg
   version="1.1"
   id="svg363"
   width="841mm"
   height="594mm"
   viewBox="0 0 3178.5827 2245.0394"
   sodipodi:docname="JoyRide.svg"
   inkscape:version="1.2.2 (b0a8486541, 2022-12-01)"
   xml:space="preserve"
   xmlns:inkscape="http://www.inkscape.org/namespaces/inkscape"
   xmlns:sodipodi="http://sodipodi.sourceforge.net/DTD/sodipodi-0.dtd"
   xmlns:xlink="http://www.w3.org/1999/xlink"
   xmlns="http://www.w3.org/2000/svg"
   xmlns:svg="http://www.w3.org/2000/svg"><defs
     id="defs367" /><sodipodi:namedview
     id="namedview365"
     pagecolor="#ffffff"
     bordercolor="#666666"
     borderopacity="1.0"
     inkscape:showpageshadow="2"
     inkscape:pageopacity="0.0"
     inkscape:pagecheckerboard="0"
     inkscape:deskcolor="#d1d1d1"
     showgrid="false"
     inkscape:document-units="mm"
     inkscape:zoom="0.33823408"
     inkscape:cx="1423.5703"
     inkscape:cy="1130.8736"
     inkscape:window-width="1920"
     inkscape:window-height="1016"
     inkscape:window-x="0"
     inkscape:window-y="0"
     inkscape:window-maximized="1"
     inkscape:current-layer="g369" /><g
     inkscape:groupmode="layer"
     inkscape:label="Image"
     id="g369"><image
       width="3178.5852"
       height="2245.1377"
       preserveAspectRatio="none"
       xlink:href="printmaps.png"
       id="image371"
       x="0"
       y="0" /><text
       xml:space="preserve"
       style="font-weight:900;font-size:213.333px;line-height:1.25;font-family:'Transport New';-inkscape-font-specification:'Transport New Heavy';fill:#200c0d;fill-opacity:1"
       x="180.91492"
       y="363.54889"
       id="text606"><tspan
         sodipodi:role="line"
         id="tspan604"
         x="180.91492"
         y="363.54889"
         style="font-size:213.333px">#JoyRide</tspan></text><text
       xml:space="preserve"
       style="font-weight:900;font-size:96px;line-height:1.25;font-family:'Transport New';-inkscape-font-specification:'Transport New Heavy';fill:#200c0d;fill-opacity:1"
       x="185.28824"
       y="499.54889"
       id="text1944"><tspan
         sodipodi:role="line"
         id="tspan1942"
         x="185.28824"
         y="499.54889"
         style="font-style:italic;font-variant:normal;font-weight:300;font-stretch:normal;font-size:96px;font-family:'Transport New';-inkscape-font-specification:'Transport New Light Italic'">Get a bike.  Play out on it</tspan></text><text
       xml:space="preserve"
       style="font-weight:900;font-size:48px;line-height:1.25;font-family:'Transport New';-inkscape-font-specification:'Transport New Heavy';fill:#200c0d;fill-opacity:1"
       x="185.28824"
       y="589.54889"
       id="text1981"><tspan
         sodipodi:role="line"
         id="tspan1979"
         x="185.28824"
         y="589.54889"
         style="font-style:normal;font-variant:normal;font-weight:300;font-stretch:normal;font-size:48px;font-family:'Transport New';-inkscape-font-specification:'Transport New Light'">Routes from the group social rides organised by </tspan><tspan
         sodipodi:role="line"
         x="185.28824"
         y="649.54889"
         style="font-style:normal;font-variant:normal;font-weight:300;font-stretch:normal;font-size:48px;font-family:'Transport New';-inkscape-font-specification:'Transport New Light'"
         id="tspan415">Peloton Liverpool Co-operative, exploring the city and</tspan><tspan
         sodipodi:role="line"
         x="185.28824"
         y="709.54889"
         style="font-style:normal;font-variant:normal;font-weight:300;font-stretch:normal;font-size:48px;font-family:'Transport New';-inkscape-font-specification:'Transport New Light'"
         id="tspan419">beyond.  For more details visit https://peloton.coop</tspan></text><text
       xml:space="preserve"
       style="font-weight:900;font-size:192px;line-height:1.25;font-family:'Transport New';-inkscape-font-specification:'Transport New Heavy'"
       x="-698.69604"
       y="116.4684"
       id="text1985"><tspan
         sodipodi:role="line"
         id="tspan1983" /></text><g
       id="g22850"
       transform="translate(58,2)"><text
         xml:space="preserve"
         style="font-weight:900;font-size:29.3333px;line-height:1.25;font-family:'Transport New';-inkscape-font-specification:'Transport New Heavy';fill:#200c0d;fill-opacity:1"
         x="2481.4082"
         y="2076.8452"
         id="text1948"><tspan
           sodipodi:role="line"
           id="tspan1946"
           x="2481.4082"
           y="2076.8452"
           style="font-style:normal;font-variant:normal;font-weight:300;font-stretch:normal;font-size:29.3333px;font-family:'Transport New';-inkscape-font-specification:'Transport New Light'">Poster:               mcqn.com/ibal242</tspan><tspan
           sodipodi:role="line"
           x="2481.4082"
           y="2113.5117"
           style="font-style:normal;font-variant:normal;font-weight:300;font-stretch:normal;font-size:29.3333px;font-family:'Transport New';-inkscape-font-specification:'Transport New Light'"
           id="tspan455">Map: © OpenStreetMap contributors</tspan></text><g
         inkscape:label="Layer 1"
         id="layer1"
         transform="matrix(0.52302362,0,0,0.52302362,2517.7494,1970.1335)"><g
           id="g3861-5-1-8-1"
           transform="matrix(-0.35855949,0.33772922,-0.33772922,-0.35855949,309.32058,185.94101)"
           style="fill:#00b2ff;fill-opacity:1;stroke:none;stroke-width:1.25886;stroke-miterlimit:4;stroke-dasharray:none;stroke-opacity:1"><path
             id="path2986-9-0-7-6"
             d="M 0,53.572 C -0.016,40.7 5.321,30.962 10.48,24.78 v 0 c 5.187,-6.233 10.224,-9.236 10.676,-9.516 v 0 c 3.368,-1.993 7.697,-0.849 9.667,2.555 v 0 c 1.966,3.392 0.851,7.747 -2.489,9.75 v 0 l 0.001,0.001 c 0,0 -0.004,0.001 -0.015,0.008 v 0 c -0.009,0.004 -0.023,0.014 -0.042,0.026 v 0 c -0.068,0.042 -0.194,0.125 -0.367,0.244 v 0 c -0.351,0.234 -0.897,0.625 -1.572,1.162 v 0 c -1.349,1.073 -3.203,2.74 -5.029,4.945 v 0 c -3.669,4.467 -7.166,10.798 -7.181,19.616 v 0 c 0.003,8.889 3.547,16.882 9.314,22.722 v 0 c 5.78,5.83 13.687,9.416 22.48,9.418 v 0 c 8.793,-0.002 16.699,-3.588 22.478,-9.418 v 0 c 5.769,-5.84 9.313,-13.833 9.316,-22.722 v 0 C 77.701,45.023 74.423,38.828 70.88,34.376 v 0 c -3.373,-4.221 -6.982,-6.572 -7.341,-6.791 v 0 C 63.535,27.582 63.53,27.581 63.527,27.579 v 0 c -0.005,-0.003 -0.008,-0.005 -0.011,-0.006 v 0 C 63.513,27.57 63.509,27.57 63.509,27.57 v 0 0 c -3.336,-2.005 -4.452,-6.36 -2.488,-9.752 v 0 c 1.972,-3.404 6.3,-4.548 9.667,-2.555 v 0 c 0.454,0.279 5.491,3.282 10.678,9.516 v 0 c 5.162,6.183 10.496,15.92 10.481,28.792 v 0 C 91.843,79.208 71.283,99.991 45.924,100 v 0 C 20.565,99.991 0.006,79.208 0,53.572 Z"
             inkscape:connector-curvature="0"
             style="fill:#00b2ff;fill-opacity:1;stroke:none;stroke-width:1.25886;stroke-miterlimit:4;stroke-dasharray:none;stroke-opacity:1" /><path
             id="path2988-7-5-7-1"
             d="M 38.859,50.001 V 28.571 7.143 C 38.859,3.199 42.022,0 45.925,0 v 0 c 3.899,0 7.062,3.199 7.062,7.143 v 0 21.428 21.43 h 0.002 c 0,3.941 -3.165,7.141 -7.064,7.141 v 0 c -3.903,0 -7.066,-3.2 -7.066,-7.141 z"
             inkscape:connector-curvature="0"
             style="fill:#00b2ff;fill-opacity:1;stroke:none;stroke-width:1.25886;stroke-miterlimit:4;stroke-dasharray:none;stroke-opacity:1" /></g><path
           style="color:#000000;font-style:normal;font-variant:normal;font-weight:normal;font-stretch:normal;font-size:medium;line-height:normal;font-family:Sans;-inkscape-font-specification:Sans;text-indent:0;text-align:start;text-decoration:none;text-decoration-line:none;letter-spacing:normal;word-spacing:normal;text-transform:none;writing-mode:lr-tb;direction:ltr;baseline-shift:baseline;text-anchor:start;display:inline;overflow:visible;visibility:visible;fill:#00b2ff;fill-opacity:1;stroke:none;stroke-width:0.620079;stroke-miterlimit:4;stroke-dasharray:none;stroke-opacity:1;marker:none;enable-background:accumulate"
           d="m 231.69259,159.0029 c -5.859,0 -11.7177,2.21225 -16.13279,6.62734 -8.83019,8.8302 -8.83019,23.07928 0,31.90948 8.83019,8.83019 23.43539,8.83019 32.26558,0 a 3.5541986,3.4289403 0 1 0 -5.11161,-4.76411 c -6.16486,6.16486 -15.86593,6.16486 -22.0308,0 l -0.0463,-0.0446 c -6.119,-6.1688 -6.10329,-16.19823 0.0463,-22.34778 6.16487,-6.16487 15.86594,-6.16487 22.0308,0 a 3.5541986,3.4289403 0 1 0 5.11161,-4.75296 c -4.41509,-4.41509 -10.2738,-6.62734 -16.13279,-6.62734 z"
           id="path2998-3-8-7-94-1-7"
           inkscape:connector-curvature="0" /><g
           style="fill:none;fill-opacity:1;stroke:#000000;stroke-width:1.25886;stroke-miterlimit:4;stroke-dasharray:none;stroke-opacity:1"
           id="g3806-6-9-9-1-5"
           transform="matrix(0.49257074,0,0,0.49257074,407.46857,146.83255)"><path
             style="color:#000000;font-style:normal;font-variant:normal;font-weight:normal;font-stretch:normal;font-size:medium;line-height:normal;font-family:Sans;-inkscape-font-specification:Sans;text-indent:0;text-align:start;text-decoration:none;text-decoration-line:none;letter-spacing:normal;word-spacing:normal;text-transform:none;writing-mode:lr-tb;direction:ltr;baseline-shift:baseline;text-anchor:start;display:inline;overflow:visible;visibility:visible;fill:#00b2ff;fill-opacity:1;stroke:none;stroke-width:0.620079;stroke-miterlimit:4;stroke-dasharray:none;stroke-opacity:1;marker:none;enable-background:accumulate"
             d="m 192.84375,1.40625 c -12.59192,0.2197925 -22.56,10.611074 -22.34375,23 0.0166,0.08914 0.0426,0.164946 0.0625,0.25 v 18.5625 c -0.0481,0.942367 0.31874,1.909751 0.96875,2.59375 0.65001,0.683999 1.58766,1.09375 2.53125,1.09375 0.94359,0 1.88124,-0.409751 2.53125,-1.09375 0.65001,-0.683999 0.98556,-1.651383 0.9375,-2.59375 v -18.25 c 0.0487,-0.209996 0.0896,-0.428034 0.0937,-0.65625 -0.15385,-8.814058 6.73269,-15.9121935 15.34375,-16.0625 8.61106,-0.150306 15.78365,6.685942 15.9375,15.5 0.003,0.184874 0.003,0.377626 0,0.5625 -0.004,0.29795 0.015,0.56036 0.0625,0.8125 v 18.09375 c 0,1.829546 1.6392,3.5 3.46875,3.5 1.82955,0 3.5,-1.670454 3.5,-3.5 v -18.5 c 0.0193,-0.103093 0.056,-0.204941 0.0625,-0.3125 0.004,-0.261842 0.004,-0.519409 0,-0.78125 -0.2162,-12.388926 -10.56428,-22.4385425 -23.1562,-22.21875 z"
             transform="matrix(2.0301653,0,0,2.0301653,-558.86951,22.677656)"
             id="path3786-1-1-8-9-2-9" /></g><g
           id="g6642"
           transform="matrix(0.49257074,0,0,0.49257074,55.684554,-93.934195)"
           style="fill:#00b2ff;fill-opacity:1;stroke:none;stroke-width:1.25886;stroke-miterlimit:4;stroke-dasharray:none;stroke-opacity:1"><g
             transform="translate(-38.261653,-533.87503)"
             id="g5795"
             style="fill:#00b2ff;fill-opacity:1;stroke:none;stroke-width:1.25886;stroke-miterlimit:4;stroke-dasharray:none;stroke-opacity:1" /><path
             style="color:#000000;font-style:normal;font-variant:normal;font-weight:normal;font-stretch:normal;font-size:medium;line-height:normal;font-family:Sans;-inkscape-font-specification:Sans;text-indent:0;text-align:start;text-decoration:none;text-decoration-line:none;letter-spacing:normal;word-spacing:normal;text-transform:none;writing-mode:lr-tb;direction:ltr;baseline-shift:baseline;text-anchor:start;display:inline;overflow:visible;visibility:visible;fill:#00b2ff;fill-opacity:1;stroke:none;stroke-width:1.25886;stroke-miterlimit:4;stroke-dasharray:none;stroke-opacity:1;marker:none;enable-background:accumulate"
             d="m 197.6478,514.26889 c -20.89486,0.41606 -37.47877,17.27644 -38.11411,37.70772 a 7.173233,7.0024415 0 0 0 -0.16041,1.56593 v 0.28187 45.41213 a 7.173233,7.0024415 0 1 0 14.34091,0 v -45.16158 a 7.173233,7.0024415 0 0 0 0,-0.46978 c -3.7e-4,-0.0213 3.2e-4,-0.0413 0,-0.0626 -0.20847,-13.88633 10.66805,-25.03648 24.28652,-25.27419 13.63938,-0.23808 24.90983,10.5438 25.15274,24.45991 0.002,0.10548 -5.1e-4,0.20768 0,0.31318 9e-4,0.1899 0.003,0.37386 0,0.56374 v 0.21923 a 7.173233,7.0024415 0 0 0 0,0.46978 v 44.94235 a 7.173233,7.0024415 0 1 0 14.34091,0 V 554.075 a 7.173233,7.0024415 0 0 0 0,-0.25055 v -0.21923 c -3.7e-4,-0.0213 3.2e-4,-0.0413 0,-0.0626 -0.20847,-13.88633 10.66805,-25.03648 24.28651,-25.27419 13.63939,-0.23808 24.90984,10.5438 25.15274,24.45991 0.002,0.10548 -5e-4,0.20768 0,0.31318 9.1e-4,0.1899 0.003,0.37386 0,0.56374 a 7.173233,7.0024415 0 0 0 0,0.68901 v 44.94235 a 7.173233,7.0024415 0 1 0 14.34091,0 v -45.41213 c 0.002,-0.0935 -9e-4,-0.18837 0,-0.28187 0.003,-0.35318 0.006,-0.71167 0,-1.06483 -0.37185,-21.303 -18.1706,-38.5855 -39.75031,-38.20882 -12.94242,0.2259 -24.21689,6.81818 -31.15218,16.59891 -7.20493,-10.18991 -19.17282,-16.83377 -32.62799,-16.59891 h -0.0962 z"
             id="path6580-1-9"
             inkscape:connector-curvature="0" /></g><text
           xml:space="preserve"
           style="font-style:normal;font-variant:normal;font-weight:normal;font-stretch:normal;line-height:0%;font-family:Vemana2000;-inkscape-font-specification:Vemana2000;letter-spacing:0px;word-spacing:0px;fill:#00b2ff;fill-opacity:1;stroke:none;stroke-width:0.620079;stroke-miterlimit:4;stroke-dasharray:none;stroke-opacity:1"
           x="302.18637"
           y="220.42648"
           id="text6811"><tspan
             sodipodi:role="line"
             id="tspan6813"
             x="302.18637"
             y="220.42648"
             style="font-size:15.7623px;line-height:1.25;fill:#00b2ff;fill-opacity:1;stroke:none;stroke-width:0.620079;stroke-miterlimit:4;stroke-dasharray:none;stroke-opacity:1">L</tspan></text><text
           xml:space="preserve"
           style="font-style:normal;font-variant:normal;font-weight:normal;font-stretch:normal;line-height:0%;font-family:Vemana2000;-inkscape-font-specification:Vemana2000;letter-spacing:0px;word-spacing:0px;fill:#00b2ff;fill-opacity:1;stroke:none;stroke-width:0.620079;stroke-miterlimit:4;stroke-dasharray:none;stroke-opacity:1"
           x="320.01038"
           y="220.41698"
           id="text6815"
           transform="scale(0.99995699,1.000043)"><tspan
             sodipodi:role="line"
             id="tspan6817"
             x="320.01038"
             y="220.41698"
             style="font-size:15.7616px;line-height:1.25;fill:#00b2ff;fill-opacity:1;stroke:none;stroke-width:0.620079;stroke-miterlimit:4;stroke-dasharray:none;stroke-opacity:1">T</tspan></text><text
           xml:space="preserve"
           style="font-style:normal;font-variant:normal;font-weight:normal;font-stretch:normal;line-height:0%;font-family:Vemana2000;-inkscape-font-specification:Vemana2000;letter-spacing:0px;word-spacing:0px;fill:#00b2ff;fill-opacity:1;stroke:none;stroke-width:0.620079;stroke-miterlimit:4;stroke-dasharray:none;stroke-opacity:1"
           x="336.92734"
           y="220.42247"
           id="text6819"
           transform="scale(0.99998181,1.0000182)"><tspan
             sodipodi:role="line"
             id="tspan6821"
             x="336.92734"
             y="220.42247"
             style="font-size:15.762px;line-height:1.25;fill:#00b2ff;fill-opacity:1;stroke:none;stroke-width:0.620079;stroke-miterlimit:4;stroke-dasharray:none;stroke-opacity:1">D</tspan></text></g></g></g></svg>
